<svg style="display: none;" xmlns="http://www.w3.org/2000/svg" xmlns:xlink="http://www.w3.org/1999/xlink">
  <symbol id="nc-icon-books" viewBox="0 0 64 64">
    <title>books</title>
    <g>
      <rect x="2" y="8" fill="none" stroke-linecap="square" stroke-miterlimit="10" width="16" height="38"/>
      <rect x="2" y="46" fill="none" stroke-linecap="square" stroke-miterlimit="10" width="16" height="10"/>
      <line data-color="color-2" fill="none" stroke="currentColor" stroke-linecap="square" stroke-miterlimit="10" x1="8" y1="16" x2="12" y2="16"/>
      <line data-color="color-2" fill="none" stroke="currentColor" stroke-linecap="square" stroke-miterlimit="10" x1="8" y1="24" x2="12" y2="24"/>
      <line data-color="color-2" fill="none" stroke="currentColor" stroke-linecap="square" stroke-miterlimit="10" x1="8" y1="32" x2="12" y2="32"/>
      <rect x="18" y="8" fill="none" stroke-linecap="square" stroke-miterlimit="10" width="16" height="38"/>
      <rect x="18" y="46" fill="none" stroke-linecap="square" stroke-miterlimit="10" width="16" height="10"/>
      <line data-color="color-2" fill="none" stroke="currentColor" stroke-linecap="square" stroke-miterlimit="10" x1="24" y1="16" x2="28" y2="16"/>
      <line data-color="color-2" fill="none" stroke="currentColor" stroke-linecap="square" stroke-miterlimit="10" x1="24" y1="24" x2="28" y2="24"/>
      <line data-color="color-2" fill="none" stroke="currentColor" stroke-linecap="square" stroke-miterlimit="10" x1="24" y1="32" x2="28" y2="32"/>
      <rect x="39.2" y="7.1" transform="matrix(0.9848 -0.1736 0.1736 0.9848 -3.8156 8.5889)" fill="none" stroke-linecap="square" stroke-miterlimit="10" width="16" height="38"/>
      <rect x="43.3" y="44.7" transform="matrix(0.9848 -0.1736 0.1736 0.9848 -7.8565 9.6716)" fill="none" stroke-linecap="square" stroke-miterlimit="10" width="16" height="10"/>
      <line data-color="color-2" fill="none" stroke="currentColor" stroke-linecap="square" stroke-miterlimit="10" x1="43.3" y1="15.6" x2="47.2" y2="14.9"/>
      <line data-color="color-2" fill="none" stroke="currentColor" stroke-linecap="square" stroke-miterlimit="10" x1="44.7" y1="23.5" x2="48.6" y2="22.8"/>
      <line data-color="color-2" fill="none" stroke="currentColor" stroke-linecap="square" stroke-miterlimit="10" x1="46.1" y1="31.4" x2="50" y2="30.7"/>
    </g>
  </symbol>
  <symbol id="nc-icon-design" viewBox="0
0 64 64"><title>design</title><g ><line data-cap="butt"
data-color="color-2" fill="none" stroke="currentColor"
stroke-miterlimit="10" x1="45" y1="57" x2="57" y2="45"/><line
data-cap="butt" data-color="color-2" fill="none" stroke="currentColor"
stroke-miterlimit="10" x1="22" y1="10" x2="10" y2="22"/><polyline
data-color="color-2" fill="none" stroke="currentColor"
stroke-linecap="square" stroke-miterlimit="10" points="&#10;&#9;19,31
3,15 15,3 31,19 "/><polyline data-color="color-2" fill="none"
stroke="currentColor" stroke-linecap="square" stroke-miterlimit="10"
points="&#10;&#9;45,33 57,45 59,59 45,57 33,45 "/><rect x="0.887"
y="22.101" transform="matrix(0.7071 -0.7071 0.7071 0.7071 -13.2548
32)" fill="none" stroke-linecap="square" stroke-miterlimit="10"
width="62.225" height="19.799"/><line fill="none"
stroke-linecap="square" stroke-miterlimit="10" x1="25" y1="25" x2="31"
y2="31"/><line fill="none" stroke-linecap="square"
stroke-miterlimit="10" x1="19" y1="31" x2="23" y2="35"/><line
fill="none" stroke-linecap="square" stroke-miterlimit="10" x1="37"
y1="13" x2="43" y2="19"/><line fill="none" stroke-linecap="square"
stroke-miterlimit="10" x1="31" y1="19" x2="35" y2="23"/><line
fill="none" stroke-linecap="square" stroke-miterlimit="10" x1="13"
y1="37" x2="19" y2="43"/></g></symbol><symbol id="nc-icon-paint-37"
viewBox="0 0 64 64"><title>paint 37</title><g ><path
data-color="color-2" fill="none" stroke="currentColor"
stroke-linecap="square" stroke-miterlimit="10"
d="M10,10h28&#10;&#9;v11c0,1.657,1.343,3,3,3h0c1.657,0,3-1.343,3-3l0-11h10"/><line
fill="none" stroke-linecap="square" stroke-miterlimit="10" x1="54"
y1="32" x2="10" y2="32"/><line data-color="color-2" fill="none"
stroke="currentColor" stroke-linecap="square" stroke-miterlimit="10"
x1="32" y1="52" x2="32" y2="54"/><path fill="none"
stroke-linecap="square" stroke-miterlimit="10"
d="M54,36c0,3.314-2.686,6-6,6&#10;&#9;H38v14c0,3.314-2.686,6-6,6h0c-3.314,0-6-2.686-6-6V42H16c-3.314,0-6-2.686-6-6V2h44V36z"/></g></symbol><symbol
id="nc-icon-palette" viewBox="0 0 64 64"><title>palette</title><g
><circle data-color="color-2" fill="none" stroke="currentColor"
stroke-linecap="square" stroke-miterlimit="10" cx="46" cy="28"
r="6"/><circle data-color="color-2" fill="none" stroke="currentColor"
stroke-linecap="square" stroke-miterlimit="10" cx="14" cy="28"
r="4"/><circle data-color="color-2" fill="none" stroke="currentColor"
stroke-linecap="square" stroke-miterlimit="10" cx="18" cy="42"
r="4"/><circle data-color="color-2" fill="none" stroke="currentColor"
stroke-linecap="square" stroke-miterlimit="10" cx="32" cy="48"
r="4"/><path fill="none" stroke-linecap="square"
stroke-miterlimit="10"
d="M2,30.1&#10;&#9;C2,19.9,7.1,10.9,14.8,5.4c2.8-1.9,7.3-2.4,9.1,0c2.6,3.4-2.1,8.2,0,11c5.4,6.6,16.8-6.4,30.2,0c9.6,4.8,8.2,17.4,7.1,21.9&#10;&#9;C57.6,51,46,60.2,32.2,60.2C15.5,60.2,2,46.7,2,30.1z"/></g></symbol><symbol
id="nc-icon-window-dev" viewBox="0 0 64 64"><title>window
dev</title><g ><polyline data-color="color-2" fill="none"
stroke="currentColor" stroke-linecap="square" stroke-miterlimit="10"
points="&#10;&#9;22,34 18,38 22,42 "/><polyline data-color="color-2"
fill="none" stroke="currentColor" stroke-linecap="square"
stroke-miterlimit="10" points="&#10;&#9;42,34 46,38 42,42 "/><line
data-color="color-2" fill="none" stroke="currentColor"
stroke-linecap="square" stroke-miterlimit="10" x1="28" y1="46" x2="36"
y2="30"/><line data-color="color-2" fill="none" stroke="currentColor"
stroke-linecap="square" stroke-miterlimit="10" x1="10" y1="13" x2="14"
y2="13"/><line data-color="color-2" fill="none" stroke="currentColor"
stroke-linecap="square" stroke-miterlimit="10" x1="20" y1="13" x2="24"
y2="13"/><line data-color="color-2" fill="none" stroke="currentColor"
stroke-linecap="square" stroke-miterlimit="10" x1="43" y1="13" x2="54"
y2="13"/><line fill="none" stroke-linecap="square"
stroke-miterlimit="10" x1="2" y1="20" x2="62" y2="20"/><rect x="2"
y="6" fill="none" stroke-linecap="square" stroke-miterlimit="10"
width="60" height="52"/></g></symbol><symbol
id="nc-icon-window-paragraph" viewBox="0 0 64 64"><title>window
paragraph</title><g ><rect data-color="color-2" x="10" y="31"
fill="none" stroke="currentColor" stroke-linecap="square"
stroke-miterlimit="10" width="16" height="16"/><line
data-color="color-2" fill="none" stroke="currentColor"
stroke-linecap="square" stroke-miterlimit="10" x1="33" y1="31" x2="54"
y2="31"/><line data-color="color-2" fill="none" stroke="currentColor"
stroke-linecap="square" stroke-miterlimit="10" x1="33" y1="39" x2="54"
y2="39"/><line data-color="color-2" fill="none" stroke="currentColor"
stroke-linecap="square" stroke-miterlimit="10" x1="33" y1="47" x2="45"
y2="47"/><line data-color="color-2" fill="none" stroke="currentColor"
stroke-linecap="square" stroke-miterlimit="10" x1="10" y1="13" x2="14"
y2="13"/><line data-color="color-2" fill="none" stroke="currentColor"
stroke-linecap="square" stroke-miterlimit="10" x1="20" y1="13" x2="24"
y2="13"/><line data-color="color-2" fill="none" stroke="currentColor"
stroke-linecap="square" stroke-miterlimit="10" x1="43" y1="13" x2="54"
y2="13"/><line fill="none" stroke-linecap="square"
stroke-miterlimit="10" x1="2" y1="20" x2="62" y2="20"/><rect x="2"
y="6" fill="none" stroke-linecap="square" stroke-miterlimit="10"
width="60" height="52"/></g></symbol><symbol id="nc-icon-world"
viewBox="0 0 64 64"><title>world</title><g ><path data-cap="butt"
fill="none" stroke-miterlimit="10"
d="M14.9,7.4c1.9,1.4,4,2.5,5.4,4.9&#10;&#9;c1.2,2,3.3,8.4,0.8,11.6c-2.8,3.6-10.9,4.8-10.9,8.2c0,2.5,3.6,5.4,5.5,8.2c2.9,4.2,1.6,8.3,0,10.9c-0.8,1.4-2.2,2.4-3.6,3.3"/><path
data-cap="butt" fill="none" stroke-miterlimit="10"
d="M55.6,13.5&#10;&#9;c-5.9,2.8-10.8,6.3-14.1,5.5c-3.7-0.9-3.4-4.2-5.6-7.5c-1.6-2.5-6.7-4.2-6.7-6.8c0-1,0.1-1.9,0.4-2.7"/><circle
fill="none" stroke-linecap="square" stroke-miterlimit="10" cx="32"
cy="32" r="30"/><path data-cap="butt" fill="none"
stroke-miterlimit="10"
d="M51.1,34.5&#10;&#9;c0.1,8.4-11.6,20.2-16.4,16.6c-4.1-3.1-0.5-5-2.7-16.6c-0.8-4.4,4.3-8.2,9.5-8.2S51.1,29.9,51.1,34.5z"/></g></symbol><symbol
id="nc-icon-planet" viewBox="0 0 64 64"><title>planet</title><g
><circle fill="none" stroke-linecap="square" stroke-miterlimit="10"
cx="30" cy="34" r="26"/><path data-cap="butt" fill="none"
stroke-miterlimit="10"
d="M54.8,41.4c5.5,8.5,7.6,15.5,4.8,18.3&#10;&#9;c-4.6,4.6-20.7-4.1-36-19.4S-0.2,8.9,4.3,4.3c2.8-2.8,9.8-0.7,18.2,4.7"/><circle
data-color="color-2" fill="none" stroke="currentColor"
stroke-linecap="square" stroke-miterlimit="10" cx="14" cy="42"
r="2"/><circle data-color="color-2" fill="none" stroke="currentColor"
stroke-linecap="square" stroke-miterlimit="10" cx="40" cy="38"
r="2"/><circle data-color="color-2" fill="none" stroke="currentColor"
stroke-linecap="square" stroke-miterlimit="10" cx="30" cy="24"
r="4"/></g></symbol><symbol id="nc-icon-puzzle-10" viewBox="0 0 64
64"><title>puzzle 10</title><g ><path fill="none"
stroke-linecap="square" stroke-miterlimit="10"
d="M52,26V12H36&#10;&#9;c0-4.4-3.6-8-8-8s-8,3.6-8,8H4v12c5.5,0,10,4.5,10,10S9.5,44,4,44v14h14c0-5.5,4.5-10,10-10s10,4.5,10,10h14V42c4.4,0,8-3.6,8-8&#10;&#9;C60,29.6,56.4,26,52,26z"/></g></symbol><symbol
id="nc-icon-spaceship" viewBox="0 0 64 64"><title>spaceship</title><g
><line data-cap="butt" fill="none" stroke-miterlimit="10" x1="38.7"
y1="9.3" x2="54.7" y2="25.2"/><path data-cap="butt"
data-color="color-2" fill="none" stroke="currentColor"
stroke-miterlimit="10"
d="M32.5,12.7&#10;&#9;c-7.8-3.4-17.3-1.9-23.7,4.5c-1.3,1.3-2.4,2.8-3.3,4.3l9.2,9.2"/><path
data-cap="butt" data-color="color-2" fill="none" stroke="currentColor"
stroke-miterlimit="10"
d="M51.2,31.4&#10;&#9;c3.5,7.9,2,17.4-4.5,23.8c-1.3,1.3-2.8,2.4-4.3,3.3l-9.3-9.3"/><path
fill="none" stroke-linecap="square" stroke-miterlimit="10"
d="M25.9,53.3L10.7,38.1&#10;&#9;c0,0,13-32.2,49.3-34.1C57.9,40.2,25.9,53.3,25.9,53.3z"/><circle
data-color="color-2" fill="none" stroke="currentColor"
stroke-linecap="square" stroke-miterlimit="10" cx="35.4" cy="28.6"
r="5.4"/><path data-color="color-2" fill="none" stroke="currentColor"
stroke-linecap="square" stroke-miterlimit="10"
d="M5.6,50.8&#10;&#9;c2.1-2.1,5.5-2.1,7.6,0s2.1,5.5,0,7.6s-9.2,1.6-9.2,1.6S3.5,52.9,5.6,50.8z"/></g></symbol><symbol
id="nc-icon-chat-round-content" viewBox="0 0 64 64"><title>chat round
content</title><g ><path fill="none" stroke-linecap="square"
stroke-miterlimit="10"
d="M55,43.8&#10;&#9;c4.4-4.3,7-9.8,7-15.8C62,14.4,48.6,4,32,4S2,14.4,2,28c0,13.6,13.4,24.5,30,24.5c2.9,0,5.7-0.4,8.4-1L56,58L55,43.8z"/><line
data-color="color-2" fill="none" stroke="currentColor"
stroke-linecap="square" stroke-miterlimit="10" x1="18" y1="22" x2="46"
y2="22"/><line data-color="color-2" fill="none" stroke="currentColor"
stroke-linecap="square" stroke-miterlimit="10" x1="18" y1="34" x2="34"
y2="34"/></g></symbol><symbol id="nc-icon-like" viewBox="0 0 64
64"><title>like</title><g ><path data-cap="butt" fill="none"
stroke-miterlimit="10"
d="M14,56l6.7,3.4&#10;&#9;C24.2,61.1,28.1,62,32,62h20c3.3,0,6.4-2.4,7-6l3-24c0-3.3-2.7-6-6-6H40V16c0-5.7-3.5-11.9-9.4-13.6C29.3,2.1,28,3,28,4.3V16L14,34"/><rect
data-color="color-2" x="2" y="28" fill="none" stroke="currentColor"
stroke-linecap="square" stroke-miterlimit="10" width="12"
height="34"/></g></symbol><symbol id="nc-icon-paragraph" viewBox="0 0
64 64"><title>paragraph</title><g ><rect x="4" y="4" fill="none"
stroke-linecap="square" stroke-miterlimit="10" width="22"
height="22"/><line data-color="color-2" fill="none"
stroke="currentColor" stroke-linecap="square" stroke-miterlimit="10"
x1="36" y1="8" x2="60" y2="8"/><line data-color="color-2" fill="none"
stroke="currentColor" stroke-linecap="square" stroke-miterlimit="10"
x1="36" y1="20" x2="52" y2="20"/><rect x="4" y="38" fill="none"
stroke-linecap="square" stroke-miterlimit="10" width="22"
height="22"/><line data-color="color-2" fill="none"
stroke="currentColor" stroke-linecap="square" stroke-miterlimit="10"
x1="36" y1="42" x2="60" y2="42"/><line data-color="color-2"
fill="none" stroke="currentColor" stroke-linecap="square"
stroke-miterlimit="10" x1="36" y1="54" x2="52"
y2="54"/></g></symbol><symbol id="nc-icon-alert" viewBox="0 0 64
64"><title>alert</title><g ><polygon fill="none"
stroke-linecap="square" stroke-miterlimit="10" points="4,60 32,8 60,60
&#10;&#9;"/><line data-color="color-2" fill="none"
stroke="currentColor" stroke-linecap="square" stroke-miterlimit="10"
x1="32" y1="27" x2="32" y2="40"/><circle data-color="color-2"
fill="none" stroke="currentColor" stroke-linecap="square"
stroke-miterlimit="10" cx="32" cy="49" r="3"/></g></symbol></svg>